<svg width="32" height="32" viewBox="0 0 32 32" fill="none" xmlns="http://www.w3.org/2000/svg">
<g clip-path="url(#clip0_8_249)">
<path d="M31.866 29.046C31.916 28.71 32.975 20.636 28.227 15.08C25.31 11.666 20.809 9.79703 14.997 9.61203L14.966 3.99903C14.966 3.61303 14.743 3.26203 14.395 3.09603C14.046 2.93303 13.633 2.98003 13.334 3.22403L0.367029 13.866C0.135029 14.056 2.8995e-05 14.34 -0.000971005 14.64C-0.00197101 14.94 0.132029 15.224 0.364029 15.414L13.332 26.157C13.63 26.404 14.047 26.455 14.393 26.289C14.744 26.124 14.966 25.771 14.966 25.385L14.997 19.646C29.006 19.636 30.002 28.612 30.036 28.983C30.079 29.487 30.398 29.88 30.904 29.896C30.916 29.897 30.927 29.897 30.938 29.897C31.433 29.897 31.792 29.536 31.866 29.046ZM13.261 17.922C13.073 18.11 12.967 18.364 12.967 18.63V23.268L2.57803 14.646L12.967 6.10403V10.597C12.967 11.15 13.414 11.597 13.967 11.597C19.657 11.597 24.004 13.245 26.702 16.373C28.731 18.727 29.664 21.608 29.983 23.999C27.799 21.015 23.975 17.636 13.968 17.63H13.966C13.702 17.63 13.448 17.735 13.261 17.922Z" fill="#F6F6F6"/>
</g>
<defs>
<clipPath id="clip0_8_249">
<rect width="32" height="32" fill="white"/>
</clipPath>
</defs>
</svg>
