<svg width="25" height="25" viewBox="0 0 25 25" fill="none" xmlns="http://www.w3.org/2000/svg">
<path d="M5.64591 14.5555L5.73132 14.458L19.4697 0.71967C19.7365 0.452877 20.155 0.428953 20.4484 0.648583L20.5413 0.730634L24.2803 4.46967C24.5471 4.73646 24.571 5.155 24.3514 5.44837L24.2694 5.5413L10.5303 19.2803C10.4166 19.3941 10.27 19.4676 10.1128 19.4915L9.98353 19.5H6.25C5.87006 19.5 5.5555 19.2171 5.50664 18.8507L5.5 18.7356V15C5.5 14.8391 5.5517 14.6835 5.64591 14.5555ZM23.75 23C24.1642 23 24.5 23.3358 24.5 23.75C24.5 24.1642 24.1642 24.5 23.75 24.5H1.25C0.835787 24.5 0.5 24.1642 0.5 23.75C0.5 23.3358 0.835787 23 1.25 23H23.75ZM21.3447 3.65533C20.602 2.91269 19.398 2.91269 18.6553 3.65533L7.55698 14.7537C7.20035 15.1103 7 15.594 7 16.0983C7 17.1486 7.8514 18 8.90165 18C9.406 18 9.88969 17.7997 10.2463 17.443L21.3447 6.34467C22.0873 5.60203 22.0873 4.39797 21.3447 3.65533Z" fill="#F6F6F6" stroke="#F6F6F6"/>
</svg>
